<mxfile host="app.diagrams.net" agent="Mozilla/5.0 (Macintosh; Intel Mac OS X 10_15_7) AppleWebKit/537.36 (KHTML, like Gecko) Chrome/132.0.0.0 Safari/537.36" version="26.0.11">
  <diagram name="Page-1" id="Hk01fdB4jkvvHZxyG3Y6">
    <mxGraphModel dx="1224" dy="814" grid="1" gridSize="10" guides="1" tooltips="1" connect="1" arrows="1" fold="1" page="1" pageScale="1" pageWidth="850" pageHeight="1100" math="0" shadow="0">
      <root>
        <mxCell id="0" />
        <mxCell id="1" parent="0" />
        <mxCell id="A2Ggw8hq1gjowvri7o_E-37" value="Study Activity (Sentence Constructor)" style="rounded=1;whiteSpace=wrap;html=1;align=left;verticalAlign=top;spacingLeft=10;arcSize=3;" parent="1" vertex="1">
          <mxGeometry x="320" y="590" width="420" height="490" as="geometry" />
        </mxCell>
        <mxCell id="A2Ggw8hq1gjowvri7o_E-28" style="edgeStyle=orthogonalEdgeStyle;rounded=0;orthogonalLoop=1;jettySize=auto;html=1;" parent="1" source="A2Ggw8hq1gjowvri7o_E-23" target="A2Ggw8hq1gjowvri7o_E-27" edge="1">
          <mxGeometry relative="1" as="geometry" />
        </mxCell>
        <mxCell id="KmJyJUYLlWiR-0wFwNjL-1" style="edgeStyle=orthogonalEdgeStyle;rounded=0;orthogonalLoop=1;jettySize=auto;html=1;" parent="1" source="A2Ggw8hq1gjowvri7o_E-23" target="A2Ggw8hq1gjowvri7o_E-33" edge="1">
          <mxGeometry relative="1" as="geometry" />
        </mxCell>
        <mxCell id="A2Ggw8hq1gjowvri7o_E-23" value="Context Construction" style="rounded=1;whiteSpace=wrap;html=1;" parent="1" vertex="1">
          <mxGeometry x="400" y="650" width="160" height="60" as="geometry" />
        </mxCell>
        <mxCell id="A2Ggw8hq1gjowvri7o_E-26" style="edgeStyle=orthogonalEdgeStyle;rounded=1;orthogonalLoop=1;jettySize=auto;html=1;curved=0;" parent="1" source="A2Ggw8hq1gjowvri7o_E-25" target="A2Ggw8hq1gjowvri7o_E-23" edge="1">
          <mxGeometry relative="1" as="geometry">
            <Array as="points">
              <mxPoint x="280" y="680" />
              <mxPoint x="280" y="680" />
            </Array>
          </mxGeometry>
        </mxCell>
        <mxCell id="A2Ggw8hq1gjowvri7o_E-36" value="Query" style="edgeLabel;html=1;align=center;verticalAlign=middle;resizable=0;points=[];" parent="A2Ggw8hq1gjowvri7o_E-26" vertex="1" connectable="0">
          <mxGeometry x="-0.0789" y="1" relative="1" as="geometry">
            <mxPoint x="-36" y="1" as="offset" />
          </mxGeometry>
        </mxCell>
        <mxCell id="A2Ggw8hq1gjowvri7o_E-25" value="User" style="sketch=0;outlineConnect=0;fontColor=#232F3E;gradientColor=none;fillColor=#232F3D;strokeColor=none;dashed=0;verticalLabelPosition=bottom;verticalAlign=top;align=center;html=1;fontSize=12;fontStyle=0;aspect=fixed;pointerEvents=1;shape=mxgraph.aws4.user;" parent="1" vertex="1">
          <mxGeometry x="160" y="660" width="80" height="80" as="geometry" />
        </mxCell>
        <mxCell id="A2Ggw8hq1gjowvri7o_E-27" value="Database" style="shape=cylinder3;whiteSpace=wrap;html=1;boundedLbl=1;backgroundOutline=1;size=15;" parent="1" vertex="1">
          <mxGeometry x="630" y="640" width="60" height="80" as="geometry" />
        </mxCell>
        <mxCell id="A2Ggw8hq1gjowvri7o_E-45" style="edgeStyle=orthogonalEdgeStyle;rounded=0;orthogonalLoop=1;jettySize=auto;html=1;" parent="1" source="A2Ggw8hq1gjowvri7o_E-31" target="A2Ggw8hq1gjowvri7o_E-44" edge="1">
          <mxGeometry relative="1" as="geometry" />
        </mxCell>
        <mxCell id="A2Ggw8hq1gjowvri7o_E-31" value="Input Guardrails" style="rounded=1;whiteSpace=wrap;html=1;" parent="1" vertex="1">
          <mxGeometry x="400" y="810" width="160" height="60" as="geometry" />
        </mxCell>
        <mxCell id="A2Ggw8hq1gjowvri7o_E-39" style="edgeStyle=orthogonalEdgeStyle;rounded=0;orthogonalLoop=1;jettySize=auto;html=1;" parent="1" source="A2Ggw8hq1gjowvri7o_E-33" target="A2Ggw8hq1gjowvri7o_E-31" edge="1">
          <mxGeometry relative="1" as="geometry" />
        </mxCell>
        <mxCell id="A2Ggw8hq1gjowvri7o_E-50" style="edgeStyle=orthogonalEdgeStyle;rounded=1;orthogonalLoop=1;jettySize=auto;html=1;curved=0;" parent="1" source="A2Ggw8hq1gjowvri7o_E-33" target="A2Ggw8hq1gjowvri7o_E-25" edge="1">
          <mxGeometry relative="1" as="geometry">
            <Array as="points">
              <mxPoint x="360" y="760" />
              <mxPoint x="360" y="720" />
            </Array>
          </mxGeometry>
        </mxCell>
        <mxCell id="A2Ggw8hq1gjowvri7o_E-33" value="Prompt Cache" style="rounded=1;whiteSpace=wrap;html=1;" parent="1" vertex="1">
          <mxGeometry x="400" y="730" width="160" height="60" as="geometry" />
        </mxCell>
        <mxCell id="A2Ggw8hq1gjowvri7o_E-41" style="edgeStyle=orthogonalEdgeStyle;rounded=1;orthogonalLoop=1;jettySize=auto;html=1;curved=0;" parent="1" source="A2Ggw8hq1gjowvri7o_E-35" target="A2Ggw8hq1gjowvri7o_E-25" edge="1">
          <mxGeometry relative="1" as="geometry">
            <Array as="points">
              <mxPoint x="360" y="1000" />
              <mxPoint x="360" y="720" />
            </Array>
          </mxGeometry>
        </mxCell>
        <mxCell id="A2Ggw8hq1gjowvri7o_E-42" value="Response" style="edgeLabel;html=1;align=center;verticalAlign=middle;resizable=0;points=[];" parent="A2Ggw8hq1gjowvri7o_E-41" vertex="1" connectable="0">
          <mxGeometry x="0.8828" y="3" relative="1" as="geometry">
            <mxPoint x="16" y="-3" as="offset" />
          </mxGeometry>
        </mxCell>
        <mxCell id="A2Ggw8hq1gjowvri7o_E-35" value="Output Guardrails" style="rounded=1;whiteSpace=wrap;html=1;" parent="1" vertex="1">
          <mxGeometry x="400" y="970" width="160" height="60" as="geometry" />
        </mxCell>
        <mxCell id="A2Ggw8hq1gjowvri7o_E-46" style="edgeStyle=orthogonalEdgeStyle;rounded=0;orthogonalLoop=1;jettySize=auto;html=1;" parent="1" source="A2Ggw8hq1gjowvri7o_E-44" target="A2Ggw8hq1gjowvri7o_E-35" edge="1">
          <mxGeometry relative="1" as="geometry" />
        </mxCell>
        <mxCell id="A2Ggw8hq1gjowvri7o_E-44" value="Model" style="rounded=1;whiteSpace=wrap;html=1;" parent="1" vertex="1">
          <mxGeometry x="400" y="890" width="160" height="60" as="geometry" />
        </mxCell>
      </root>
    </mxGraphModel>
  </diagram>
</mxfile>
